<svg xmlns="http://www.w3.org/2000/svg" version="1.1" xmlns:xlink="http://www.w3.org/1999/xlink" xmlns:svgjs="http://svgjs.com/svgjs" width="1440" height="750" preserveAspectRatio="none" viewBox="0 0 1440 750"><g mask="url(&quot;#SvgjsMask1013&quot;)" fill="none"><rect width="1440" height="750" x="0" y="0" fill="rgba(250, 253, 255, 1)"></rect><path d="M325.02 706.55a25.02 25.02 0 1 0-32.87-37.73z" stroke="#e73635"></path><path d="M1174.94 109.32L1197.18 109.32L1197.18 147.97L1174.94 147.97z" stroke="#d3b714"></path><path d="M631.39 18.61 a27.48 27.48 0 1 0 54.96 0 a27.48 27.48 0 1 0 -54.96 0z" stroke="rgba(145, 255, 0, 1)"></path><path d="M163.41 125.15L176.67 125.15L176.67 133.63L163.41 133.63z" fill="#e73635"></path><path d="M457.9 209.86 a56.91 56.91 0 1 0 113.82 0 a56.91 56.91 0 1 0 -113.82 0z" stroke="#d3b714"></path><path d="M1388.17 593.09a39.02 39.02 0 1 0 75.84-18.38z" fill="#e73635"></path><path d="M1450.6 495.15a51.3 51.3 0 1 0-63.73-80.4z" stroke="rgba(145, 255, 0, 1)"></path><path d="M595.17 109.91L633.62 109.91L633.62 148.36L595.17 148.36z" fill="#e73635"></path><path d="M1181.84 195.26 a55.34 55.34 0 1 0 110.68 0 a55.34 55.34 0 1 0 -110.68 0z" stroke="#d3b714"></path><path d="M455.15 675.22a40.25 40.25 0 1 0-39.75 70z" stroke="#d3b714"></path><path d="M646.9 55.8a73.46 73.46 0 1 0 134.51-59.1z" fill="#d3b714"></path><path d="M213.83 661.57L278.91 661.57L278.91 731.18L213.83 731.18z" stroke="rgba(145, 255, 0, 1)"></path><path d="M514.64 522.97L557.24 522.97L557.24 565.57L514.64 565.57z" stroke="rgba(145, 255, 0, 1)"></path><path d="M851.2 671.39L907.98 671.39L907.98 681.8L851.2 681.8z" stroke="rgba(145, 255, 0, 1)"></path><path d="M1318.66 119.96 a18.42 18.42 0 1 0 36.84 0 a18.42 18.42 0 1 0 -36.84 0z" stroke="#e73635"></path><path d="M1324.05 742.02L1334.25 742.02L1334.25 758.82L1324.05 758.82z" stroke="#e73635"></path><path d="M481.63 73.37L504.64 73.37L504.64 115.31L481.63 115.31z" fill="#e73635"></path><path d="M164.69 491.74a25.56 25.56 0 1 0-18.66 47.59z" fill="rgba(145, 255, 0, 1)"></path><path d="M367.22 244.5a34.4 34.4 0 1 0 12.06-67.74z" fill="#e73635"></path><path d="M963.42 192.66 a2.23 2.23 0 1 0 4.46 0 a2.23 2.23 0 1 0 -4.46 0z" stroke="rgba(145, 255, 0, 1)"></path><path d="M577.85 741.4a74.13 74.13 0 1 0 118.89-88.58z" stroke="#d3b714"></path><path d="M1115.14 229.92L1147.52 229.92L1147.52 254.68L1115.14 254.68z" fill="#d3b714"></path><path d="M1089.76 743.03a72.36 72.36 0 1 0-130.05-63.49z" stroke="rgba(145, 255, 0, 1)"></path><path d="M726.97 186.03L795.4 186.03L795.4 254.46L726.97 254.46z" stroke="rgba(145, 255, 0, 1)"></path></g><defs><mask id="SvgjsMask1013"><rect width="1440" height="750" fill="#ffffff"></rect></mask></defs></svg>