<svg xmlns="http://www.w3.org/2000/svg" version="1.1" xmlns:xlink="http://www.w3.org/1999/xlink" xmlns:svgjs="http://svgjs.com/svgjs" width="1440" height="750" preserveAspectRatio="none" viewBox="0 0 1440 750"><g mask="url(&quot;#SvgjsMask1020&quot;)" fill="none"><rect width="1440" height="750" x="0" y="0" fill="rgba(241, 241, 241, 1)"></rect><path d="M-105.75 515.47L-105.75 515.47" stroke="rgba(53, 135, 215, 1)" stroke-width="1.5"></path><path d="M-105.75 515.47L-99.96 691.16" stroke="rgba(53, 135, 215, 1)" stroke-width="1.5"></path><path d="M-105.75 515.47L-103.72 826.23" stroke="rgba(53, 135, 215, 1)" stroke-width="1.5"></path><path d="M-105.75 515.47L202.28 561.96" stroke="rgba(53, 135, 215, 1)" stroke-width="1.5"></path><path d="M-105.75 515.47L111.09 821.14" stroke="rgba(53, 135, 215, 1)" stroke-width="1.5"></path><path d="M-105.75 515.47L246.49 702.57" stroke="rgba(53, 135, 215, 1)" stroke-width="1.5"></path><path d="M-105.75 515.47L252.59 794.63" stroke="rgba(53, 135, 215, 1)" stroke-width="1.5"></path><path d="M-99.96 691.16L-99.96 691.16" stroke="rgba(53, 135, 215, 1)" stroke-width="1.5"></path><path d="M-99.96 691.16L-103.72 826.23" stroke="rgba(53, 135, 215, 1)" stroke-width="1.5"></path><path d="M-99.96 691.16L111.09 821.14" stroke="rgba(53, 135, 215, 1)" stroke-width="1.5"></path><path d="M-99.96 691.16L202.28 561.96" stroke="rgba(53, 135, 215, 1)" stroke-width="1.5"></path><path d="M-99.96 691.16L246.49 702.57" stroke="rgba(53, 135, 215, 1)" stroke-width="1.5"></path><path d="M-99.96 691.16L252.59 794.63" stroke="rgba(53, 135, 215, 1)" stroke-width="1.5"></path><path d="M-103.72 826.23L-103.72 826.23" stroke="rgba(53, 135, 215, 1)" stroke-width="1.5"></path><path d="M-103.72 826.23L111.09 821.14" stroke="rgba(53, 135, 215, 1)" stroke-width="1.5"></path><path d="M-103.72 826.23L252.59 794.63" stroke="rgba(53, 135, 215, 1)" stroke-width="1.5"></path><path d="M-103.72 826.23L246.49 702.57" stroke="rgba(53, 135, 215, 1)" stroke-width="1.5"></path><path d="M-103.72 826.23L202.28 561.96" stroke="rgba(53, 135, 215, 1)" stroke-width="1.5"></path><path d="M111.09 821.14L111.09 821.14" stroke="rgba(53, 135, 215, 1)" stroke-width="1.5"></path><path d="M111.09 821.14L252.59 794.63" stroke="rgba(53, 135, 215, 1)" stroke-width="1.5"></path><path d="M202.28 561.96L202.28 561.96" stroke="rgba(53, 135, 215, 1)" stroke-width="1.5"></path><path d="M202.28 561.96L246.49 702.57" stroke="rgba(53, 135, 215, 1)" stroke-width="1.5"></path><path d="M202.28 561.96L402.25 561.15" stroke="rgba(53, 135, 215, 1)" stroke-width="1.5"></path><path d="M202.28 561.96L400.7 684.29" stroke="rgba(53, 135, 215, 1)" stroke-width="1.5"></path><path d="M202.28 561.96L252.59 794.63" stroke="rgba(53, 135, 215, 1)" stroke-width="1.5"></path><path d="M246.49 702.57L246.49 702.57" stroke="rgba(53, 135, 215, 1)" stroke-width="1.5"></path><path d="M246.49 702.57L252.59 794.63" stroke="rgba(53, 135, 215, 1)" stroke-width="1.5"></path><path d="M246.49 702.57L354.62 812.38" stroke="rgba(53, 135, 215, 1)" stroke-width="1.5"></path><path d="M252.59 794.63L252.59 794.63" stroke="rgba(53, 135, 215, 1)" stroke-width="1.5"></path><path d="M252.59 794.63L354.62 812.38" stroke="rgba(53, 135, 215, 1)" stroke-width="1.5"></path><path d="M402.25 561.15L402.25 561.15" stroke="rgba(53, 135, 215, 1)" stroke-width="1.5"></path><path d="M402.25 561.15L400.7 684.29" stroke="rgba(53, 135, 215, 1)" stroke-width="1.5"></path><path d="M402.25 561.15L562.05 506.38" stroke="rgba(53, 135, 215, 1)" stroke-width="1.5"></path><path d="M402.25 561.15L513.13 400.84" stroke="rgba(53, 135, 215, 1)" stroke-width="1.5"></path><path d="M402.25 561.15L246.49 702.57" stroke="rgba(53, 135, 215, 1)" stroke-width="1.5"></path><path d="M402.25 561.15L354.62 812.38" stroke="rgba(53, 135, 215, 1)" stroke-width="1.5"></path><path d="M400.7 684.29L400.7 684.29" stroke="rgba(53, 135, 215, 1)" stroke-width="1.5"></path><path d="M400.7 684.29L354.62 812.38" stroke="rgba(53, 135, 215, 1)" stroke-width="1.5"></path><path d="M354.62 812.38L354.62 812.38" stroke="rgba(53, 135, 215, 1)" stroke-width="1.5"></path><path d="M354.62 812.38L514.97 843.11" stroke="rgba(53, 135, 215, 1)" stroke-width="1.5"></path><path d="M354.62 812.38L111.09 821.14" stroke="rgba(53, 135, 215, 1)" stroke-width="1.5"></path><path d="M513.13 400.84L513.13 400.84" stroke="rgba(53, 135, 215, 1)" stroke-width="1.5"></path><path d="M513.13 400.84L562.05 506.38" stroke="rgba(53, 135, 215, 1)" stroke-width="1.5"></path><path d="M513.13 400.84L689.21 370.72" stroke="rgba(53, 135, 215, 1)" stroke-width="1.5"></path><path d="M513.13 400.84L683.69 541.03" stroke="rgba(53, 135, 215, 1)" stroke-width="1.5"></path><path d="M513.13 400.84L400.7 684.29" stroke="rgba(53, 135, 215, 1)" stroke-width="1.5"></path><path d="M513.13 400.84L848.9 368.3" stroke="rgba(53, 135, 215, 1)" stroke-width="1.5"></path><path d="M562.05 506.38L562.05 506.38" stroke="rgba(53, 135, 215, 1)" stroke-width="1.5"></path><path d="M562.05 506.38L683.69 541.03" stroke="rgba(53, 135, 215, 1)" stroke-width="1.5"></path><path d="M562.05 506.38L689.21 370.72" stroke="rgba(53, 135, 215, 1)" stroke-width="1.5"></path><path d="M562.05 506.38L400.7 684.29" stroke="rgba(53, 135, 215, 1)" stroke-width="1.5"></path><path d="M514.97 843.11L514.97 843.11" stroke="rgba(53, 135, 215, 1)" stroke-width="1.5"></path><path d="M514.97 843.11L694.01 808.91" stroke="rgba(53, 135, 215, 1)" stroke-width="1.5"></path><path d="M514.97 843.11L400.7 684.29" stroke="rgba(53, 135, 215, 1)" stroke-width="1.5"></path><path d="M514.97 843.11L252.59 794.63" stroke="rgba(53, 135, 215, 1)" stroke-width="1.5"></path><path d="M514.97 843.11L246.49 702.57" stroke="rgba(53, 135, 215, 1)" stroke-width="1.5"></path><path d="M514.97 843.11L402.25 561.15" stroke="rgba(53, 135, 215, 1)" stroke-width="1.5"></path><path d="M689.21 370.72L689.21 370.72" stroke="rgba(53, 135, 215, 1)" stroke-width="1.5"></path><path d="M689.21 370.72L848.9 368.3" stroke="rgba(53, 135, 215, 1)" stroke-width="1.5"></path><path d="M689.21 370.72L683.69 541.03" stroke="rgba(53, 135, 215, 1)" stroke-width="1.5"></path><path d="M689.21 370.72L810.04 239.99" stroke="rgba(53, 135, 215, 1)" stroke-width="1.5"></path><path d="M689.21 370.72L826.89 530.22" stroke="rgba(53, 135, 215, 1)" stroke-width="1.5"></path><path d="M683.69 541.03L683.69 541.03" stroke="rgba(53, 135, 215, 1)" stroke-width="1.5"></path><path d="M683.69 541.03L826.89 530.22" stroke="rgba(53, 135, 215, 1)" stroke-width="1.5"></path><path d="M683.69 541.03L810.35 662.38" stroke="rgba(53, 135, 215, 1)" stroke-width="1.5"></path><path d="M694.01 808.91L694.01 808.91" stroke="rgba(53, 135, 215, 1)" stroke-width="1.5"></path><path d="M694.01 808.91L825.82 857.79" stroke="rgba(53, 135, 215, 1)" stroke-width="1.5"></path><path d="M694.01 808.91L810.35 662.38" stroke="rgba(53, 135, 215, 1)" stroke-width="1.5"></path><path d="M694.01 808.91L683.69 541.03" stroke="rgba(53, 135, 215, 1)" stroke-width="1.5"></path><path d="M810.04 239.99L810.04 239.99" stroke="rgba(53, 135, 215, 1)" stroke-width="1.5"></path><path d="M810.04 239.99L848.9 368.3" stroke="rgba(53, 135, 215, 1)" stroke-width="1.5"></path><path d="M810.04 239.99L953.34 238.97" stroke="rgba(53, 135, 215, 1)" stroke-width="1.5"></path><path d="M848.9 368.3L848.9 368.3" stroke="rgba(53, 135, 215, 1)" stroke-width="1.5"></path><path d="M848.9 368.3L826.89 530.22" stroke="rgba(53, 135, 215, 1)" stroke-width="1.5"></path><path d="M848.9 368.3L1011.81 347.56" stroke="rgba(53, 135, 215, 1)" stroke-width="1.5"></path><path d="M826.89 530.22L826.89 530.22" stroke="rgba(53, 135, 215, 1)" stroke-width="1.5"></path><path d="M826.89 530.22L940.5 536.48" stroke="rgba(53, 135, 215, 1)" stroke-width="1.5"></path><path d="M826.89 530.22L810.35 662.38" stroke="rgba(53, 135, 215, 1)" stroke-width="1.5"></path><path d="M826.89 530.22L984.1 679.32" stroke="rgba(53, 135, 215, 1)" stroke-width="1.5"></path><path d="M810.35 662.38L810.35 662.38" stroke="rgba(53, 135, 215, 1)" stroke-width="1.5"></path><path d="M810.35 662.38L984.1 679.32" stroke="rgba(53, 135, 215, 1)" stroke-width="1.5"></path><path d="M810.35 662.38L940.5 536.48" stroke="rgba(53, 135, 215, 1)" stroke-width="1.5"></path><path d="M810.35 662.38L825.82 857.79" stroke="rgba(53, 135, 215, 1)" stroke-width="1.5"></path><path d="M825.82 857.79L825.82 857.79" stroke="rgba(53, 135, 215, 1)" stroke-width="1.5"></path><path d="M825.82 857.79L977.09 843.57" stroke="rgba(53, 135, 215, 1)" stroke-width="1.5"></path><path d="M825.82 857.79L984.1 679.32" stroke="rgba(53, 135, 215, 1)" stroke-width="1.5"></path><path d="M825.82 857.79L514.97 843.11" stroke="rgba(53, 135, 215, 1)" stroke-width="1.5"></path><path d="M1002.46 -46.97L1002.46 -46.97" stroke="rgba(53, 135, 215, 1)" stroke-width="1.5"></path><path d="M1002.46 -46.97L1095.03 -64.07" stroke="rgba(53, 135, 215, 1)" stroke-width="1.5"></path><path d="M1002.46 -46.97L981.08 111.17" stroke="rgba(53, 135, 215, 1)" stroke-width="1.5"></path><path d="M1002.46 -46.97L1240.48 -76.4" stroke="rgba(53, 135, 215, 1)" stroke-width="1.5"></path><path d="M1002.46 -46.97L953.34 238.97" stroke="rgba(53, 135, 215, 1)" stroke-width="1.5"></path><path d="M1002.46 -46.97L1099.09 247.73" stroke="rgba(53, 135, 215, 1)" stroke-width="1.5"></path><path d="M1002.46 -46.97L810.04 239.99" stroke="rgba(53, 135, 215, 1)" stroke-width="1.5"></path><path d="M981.08 111.17L981.08 111.17" stroke="rgba(53, 135, 215, 1)" stroke-width="1.5"></path><path d="M981.08 111.17L953.34 238.97" stroke="rgba(53, 135, 215, 1)" stroke-width="1.5"></path><path d="M981.08 111.17L1099.09 247.73" stroke="rgba(53, 135, 215, 1)" stroke-width="1.5"></path><path d="M953.34 238.97L953.34 238.97" stroke="rgba(53, 135, 215, 1)" stroke-width="1.5"></path><path d="M953.34 238.97L1011.81 347.56" stroke="rgba(53, 135, 215, 1)" stroke-width="1.5"></path><path d="M1011.81 347.56L1011.81 347.56" stroke="rgba(53, 135, 215, 1)" stroke-width="1.5"></path><path d="M1011.81 347.56L1101.82 393.52" stroke="rgba(53, 135, 215, 1)" stroke-width="1.5"></path><path d="M1011.81 347.56L1099.09 247.73" stroke="rgba(53, 135, 215, 1)" stroke-width="1.5"></path><path d="M940.5 536.48L940.5 536.48" stroke="rgba(53, 135, 215, 1)" stroke-width="1.5"></path><path d="M940.5 536.48L984.1 679.32" stroke="rgba(53, 135, 215, 1)" stroke-width="1.5"></path><path d="M940.5 536.48L1128.51 543.59" stroke="rgba(53, 135, 215, 1)" stroke-width="1.5"></path><path d="M940.5 536.48L848.9 368.3" stroke="rgba(53, 135, 215, 1)" stroke-width="1.5"></path><path d="M940.5 536.48L1011.81 347.56" stroke="rgba(53, 135, 215, 1)" stroke-width="1.5"></path><path d="M984.1 679.32L984.1 679.32" stroke="rgba(53, 135, 215, 1)" stroke-width="1.5"></path><path d="M984.1 679.32L1117.42 701.34" stroke="rgba(53, 135, 215, 1)" stroke-width="1.5"></path><path d="M977.09 843.57L977.09 843.57" stroke="rgba(53, 135, 215, 1)" stroke-width="1.5"></path><path d="M977.09 843.57L984.1 679.32" stroke="rgba(53, 135, 215, 1)" stroke-width="1.5"></path><path d="M977.09 843.57L1141.58 807.17" stroke="rgba(53, 135, 215, 1)" stroke-width="1.5"></path><path d="M977.09 843.57L1117.42 701.34" stroke="rgba(53, 135, 215, 1)" stroke-width="1.5"></path><path d="M977.09 843.57L810.35 662.38" stroke="rgba(53, 135, 215, 1)" stroke-width="1.5"></path><path d="M977.09 843.57L694.01 808.91" stroke="rgba(53, 135, 215, 1)" stroke-width="1.5"></path><path d="M1095.03 -64.07L1095.03 -64.07" stroke="rgba(53, 135, 215, 1)" stroke-width="1.5"></path><path d="M1095.03 -64.07L1240.48 -76.4" stroke="rgba(53, 135, 215, 1)" stroke-width="1.5"></path><path d="M1095.03 -64.07L981.08 111.17" stroke="rgba(53, 135, 215, 1)" stroke-width="1.5"></path><path d="M1095.03 -64.07L1099.09 247.73" stroke="rgba(53, 135, 215, 1)" stroke-width="1.5"></path><path d="M1099.09 247.73L1099.09 247.73" stroke="rgba(53, 135, 215, 1)" stroke-width="1.5"></path><path d="M1099.09 247.73L1101.82 393.52" stroke="rgba(53, 135, 215, 1)" stroke-width="1.5"></path><path d="M1099.09 247.73L953.34 238.97" stroke="rgba(53, 135, 215, 1)" stroke-width="1.5"></path><path d="M1101.82 393.52L1101.82 393.52" stroke="rgba(53, 135, 215, 1)" stroke-width="1.5"></path><path d="M1101.82 393.52L1128.51 543.59" stroke="rgba(53, 135, 215, 1)" stroke-width="1.5"></path><path d="M1101.82 393.52L1294.84 382.93" stroke="rgba(53, 135, 215, 1)" stroke-width="1.5"></path><path d="M1128.51 543.59L1128.51 543.59" stroke="rgba(53, 135, 215, 1)" stroke-width="1.5"></path><path d="M1128.51 543.59L1280.56 531.79" stroke="rgba(53, 135, 215, 1)" stroke-width="1.5"></path><path d="M1128.51 543.59L1117.42 701.34" stroke="rgba(53, 135, 215, 1)" stroke-width="1.5"></path><path d="M1117.42 701.34L1117.42 701.34" stroke="rgba(53, 135, 215, 1)" stroke-width="1.5"></path><path d="M1117.42 701.34L1141.58 807.17" stroke="rgba(53, 135, 215, 1)" stroke-width="1.5"></path><path d="M1141.58 807.17L1141.58 807.17" stroke="rgba(53, 135, 215, 1)" stroke-width="1.5"></path><path d="M1141.58 807.17L1283.61 853.67" stroke="rgba(53, 135, 215, 1)" stroke-width="1.5"></path><path d="M1240.48 -76.4L1240.48 -76.4" stroke="rgba(53, 135, 215, 1)" stroke-width="1.5"></path><path d="M1240.48 -76.4L1406.21 -104.95" stroke="rgba(53, 135, 215, 1)" stroke-width="1.5"></path><path d="M1290 214.23L1290 214.23" stroke="rgba(53, 135, 215, 1)" stroke-width="1.5"></path><path d="M1290 214.23L1396.14 231.66" stroke="rgba(53, 135, 215, 1)" stroke-width="1.5"></path><path d="M1290 214.23L1294.84 382.93" stroke="rgba(53, 135, 215, 1)" stroke-width="1.5"></path><path d="M1290 214.23L1099.09 247.73" stroke="rgba(53, 135, 215, 1)" stroke-width="1.5"></path><path d="M1290 214.23L1413.19 408.14" stroke="rgba(53, 135, 215, 1)" stroke-width="1.5"></path><path d="M1294.84 382.93L1294.84 382.93" stroke="rgba(53, 135, 215, 1)" stroke-width="1.5"></path><path d="M1294.84 382.93L1413.19 408.14" stroke="rgba(53, 135, 215, 1)" stroke-width="1.5"></path><path d="M1294.84 382.93L1280.56 531.79" stroke="rgba(53, 135, 215, 1)" stroke-width="1.5"></path><path d="M1294.84 382.93L1396.14 231.66" stroke="rgba(53, 135, 215, 1)" stroke-width="1.5"></path><path d="M1280.56 531.79L1280.56 531.79" stroke="rgba(53, 135, 215, 1)" stroke-width="1.5"></path><path d="M1280.56 531.79L1389.1 558.03" stroke="rgba(53, 135, 215, 1)" stroke-width="1.5"></path><path d="M1280.56 531.79L1283.24 644.32" stroke="rgba(53, 135, 215, 1)" stroke-width="1.5"></path><path d="M1283.24 644.32L1283.24 644.32" stroke="rgba(53, 135, 215, 1)" stroke-width="1.5"></path><path d="M1283.24 644.32L1389.1 558.03" stroke="rgba(53, 135, 215, 1)" stroke-width="1.5"></path><path d="M1283.24 644.32L1445.94 669.91" stroke="rgba(53, 135, 215, 1)" stroke-width="1.5"></path><path d="M1283.24 644.32L1117.42 701.34" stroke="rgba(53, 135, 215, 1)" stroke-width="1.5"></path><path d="M1283.61 853.67L1283.61 853.67" stroke="rgba(53, 135, 215, 1)" stroke-width="1.5"></path><path d="M1283.61 853.67L1422.05 858.4" stroke="rgba(53, 135, 215, 1)" stroke-width="1.5"></path><path d="M1406.21 -104.95L1406.21 -104.95" stroke="rgba(53, 135, 215, 1)" stroke-width="1.5"></path><path d="M1406.21 -104.95L1561.89 -75.34" stroke="rgba(53, 135, 215, 1)" stroke-width="1.5"></path><path d="M1396.14 231.66L1396.14 231.66" stroke="rgba(53, 135, 215, 1)" stroke-width="1.5"></path><path d="M1396.14 231.66L1544.88 189.71" stroke="rgba(53, 135, 215, 1)" stroke-width="1.5"></path><path d="M1396.14 231.66L1413.19 408.14" stroke="rgba(53, 135, 215, 1)" stroke-width="1.5"></path><path d="M1413.19 408.14L1413.19 408.14" stroke="rgba(53, 135, 215, 1)" stroke-width="1.5"></path><path d="M1413.19 408.14L1538.16 398.14" stroke="rgba(53, 135, 215, 1)" stroke-width="1.5"></path><path d="M1413.19 408.14L1389.1 558.03" stroke="rgba(53, 135, 215, 1)" stroke-width="1.5"></path><path d="M1389.1 558.03L1389.1 558.03" stroke="rgba(53, 135, 215, 1)" stroke-width="1.5"></path><path d="M1389.1 558.03L1445.94 669.91" stroke="rgba(53, 135, 215, 1)" stroke-width="1.5"></path><path d="M1389.1 558.03L1574.6 516.19" stroke="rgba(53, 135, 215, 1)" stroke-width="1.5"></path><path d="M1445.94 669.91L1445.94 669.91" stroke="rgba(53, 135, 215, 1)" stroke-width="1.5"></path><path d="M1445.94 669.91L1554.82 682.72" stroke="rgba(53, 135, 215, 1)" stroke-width="1.5"></path><path d="M1422.05 858.4L1422.05 858.4" stroke="rgba(53, 135, 215, 1)" stroke-width="1.5"></path><path d="M1422.05 858.4L1540.26 821.51" stroke="rgba(53, 135, 215, 1)" stroke-width="1.5"></path><path d="M1422.05 858.4L1445.94 669.91" stroke="rgba(53, 135, 215, 1)" stroke-width="1.5"></path><path d="M1422.05 858.4L1554.82 682.72" stroke="rgba(53, 135, 215, 1)" stroke-width="1.5"></path><path d="M1422.05 858.4L1283.24 644.32" stroke="rgba(53, 135, 215, 1)" stroke-width="1.5"></path><path d="M1561.89 -75.34L1561.89 -75.34" stroke="rgba(53, 135, 215, 1)" stroke-width="1.5"></path><path d="M1561.89 -75.34L1538.99 99.85" stroke="rgba(53, 135, 215, 1)" stroke-width="1.5"></path><path d="M1561.89 -75.34L1544.88 189.71" stroke="rgba(53, 135, 215, 1)" stroke-width="1.5"></path><path d="M1561.89 -75.34L1240.48 -76.4" stroke="rgba(53, 135, 215, 1)" stroke-width="1.5"></path><path d="M1561.89 -75.34L1396.14 231.66" stroke="rgba(53, 135, 215, 1)" stroke-width="1.5"></path><path d="M1561.89 -75.34L1290 214.23" stroke="rgba(53, 135, 215, 1)" stroke-width="1.5"></path><path d="M1538.99 99.85L1538.99 99.85" stroke="rgba(53, 135, 215, 1)" stroke-width="1.5"></path><path d="M1538.99 99.85L1544.88 189.71" stroke="rgba(53, 135, 215, 1)" stroke-width="1.5"></path><path d="M1538.99 99.85L1396.14 231.66" stroke="rgba(53, 135, 215, 1)" stroke-width="1.5"></path><path d="M1538.99 99.85L1406.21 -104.95" stroke="rgba(53, 135, 215, 1)" stroke-width="1.5"></path><path d="M1538.99 99.85L1290 214.23" stroke="rgba(53, 135, 215, 1)" stroke-width="1.5"></path><path d="M1544.88 189.71L1544.88 189.71" stroke="rgba(53, 135, 215, 1)" stroke-width="1.5"></path><path d="M1544.88 189.71L1538.16 398.14" stroke="rgba(53, 135, 215, 1)" stroke-width="1.5"></path><path d="M1544.88 189.71L1413.19 408.14" stroke="rgba(53, 135, 215, 1)" stroke-width="1.5"></path><path d="M1538.16 398.14L1538.16 398.14" stroke="rgba(53, 135, 215, 1)" stroke-width="1.5"></path><path d="M1538.16 398.14L1574.6 516.19" stroke="rgba(53, 135, 215, 1)" stroke-width="1.5"></path><path d="M1538.16 398.14L1389.1 558.03" stroke="rgba(53, 135, 215, 1)" stroke-width="1.5"></path><path d="M1538.16 398.14L1396.14 231.66" stroke="rgba(53, 135, 215, 1)" stroke-width="1.5"></path><path d="M1574.6 516.19L1574.6 516.19" stroke="rgba(53, 135, 215, 1)" stroke-width="1.5"></path><path d="M1574.6 516.19L1554.82 682.72" stroke="rgba(53, 135, 215, 1)" stroke-width="1.5"></path><path d="M1574.6 516.19L1413.19 408.14" stroke="rgba(53, 135, 215, 1)" stroke-width="1.5"></path><path d="M1574.6 516.19L1445.94 669.91" stroke="rgba(53, 135, 215, 1)" stroke-width="1.5"></path><path d="M1554.82 682.72L1554.82 682.72" stroke="rgba(53, 135, 215, 1)" stroke-width="1.5"></path><path d="M1554.82 682.72L1540.26 821.51" stroke="rgba(53, 135, 215, 1)" stroke-width="1.5"></path><path d="M1540.26 821.51L1540.26 821.51" stroke="rgba(53, 135, 215, 1)" stroke-width="1.5"></path><path d="M1540.26 821.51L1445.94 669.91" stroke="rgba(53, 135, 215, 1)" stroke-width="1.5"></path><path d="M1540.26 821.51L1283.61 853.67" stroke="rgba(53, 135, 215, 1)" stroke-width="1.5"></path><path d="M1540.26 821.51L1389.1 558.03" stroke="rgba(53, 135, 215, 1)" stroke-width="1.5"></path><circle r="5" cx="-105.75" cy="515.47" fill="rgba(53, 135, 215, 1)"></circle><circle r="5" cx="-99.96" cy="691.16" fill="rgba(53, 135, 215, 1)"></circle><circle r="5" cx="-103.72" cy="826.23" fill="rgba(53, 135, 215, 1)"></circle><circle r="5" cx="111.09" cy="821.14" fill="rgba(53, 135, 215, 1)"></circle><circle r="5" cx="202.28" cy="561.96" fill="rgba(53, 135, 215, 1)"></circle><circle r="5" cx="246.49" cy="702.57" fill="rgba(53, 135, 215, 1)"></circle><circle r="5" cx="252.59" cy="794.63" fill="rgba(53, 135, 215, 1)"></circle><circle r="5" cx="402.25" cy="561.15" fill="rgba(53, 135, 215, 1)"></circle><circle r="5" cx="400.7" cy="684.29" fill="rgba(53, 135, 215, 1)"></circle><circle r="5" cx="354.62" cy="812.38" fill="rgba(53, 135, 215, 1)"></circle><circle r="5" cx="513.13" cy="400.84" fill="rgba(53, 135, 215, 1)"></circle><circle r="5" cx="562.05" cy="506.38" fill="rgba(53, 135, 215, 1)"></circle><circle r="5" cx="514.97" cy="843.11" fill="rgba(53, 135, 215, 1)"></circle><circle r="5" cx="689.21" cy="370.72" fill="rgba(53, 135, 215, 1)"></circle><circle r="5" cx="683.69" cy="541.03" fill="rgba(53, 135, 215, 1)"></circle><circle r="5" cx="694.01" cy="808.91" fill="rgba(53, 135, 215, 1)"></circle><circle r="5" cx="810.04" cy="239.99" fill="rgba(53, 135, 215, 1)"></circle><circle r="5" cx="848.9" cy="368.3" fill="rgba(53, 135, 215, 1)"></circle><circle r="5" cx="826.89" cy="530.22" fill="rgba(53, 135, 215, 1)"></circle><circle r="5" cx="810.35" cy="662.38" fill="rgba(53, 135, 215, 1)"></circle><circle r="5" cx="825.82" cy="857.79" fill="rgba(53, 135, 215, 1)"></circle><circle r="5" cx="1002.46" cy="-46.97" fill="rgba(53, 135, 215, 1)"></circle><circle r="5" cx="981.08" cy="111.17" fill="rgba(53, 135, 215, 1)"></circle><circle r="5" cx="953.34" cy="238.97" fill="rgba(53, 135, 215, 1)"></circle><circle r="5" cx="1011.81" cy="347.56" fill="rgba(53, 135, 215, 1)"></circle><circle r="5" cx="940.5" cy="536.48" fill="rgba(53, 135, 215, 1)"></circle><circle r="5" cx="984.1" cy="679.32" fill="rgba(53, 135, 215, 1)"></circle><circle r="5" cx="977.09" cy="843.57" fill="rgba(53, 135, 215, 1)"></circle><circle r="5" cx="1095.03" cy="-64.07" fill="rgba(53, 135, 215, 1)"></circle><circle r="5" cx="1099.09" cy="247.73" fill="rgba(53, 135, 215, 1)"></circle><circle r="5" cx="1101.82" cy="393.52" fill="rgba(53, 135, 215, 1)"></circle><circle r="5" cx="1128.51" cy="543.59" fill="rgba(53, 135, 215, 1)"></circle><circle r="5" cx="1117.42" cy="701.34" fill="rgba(53, 135, 215, 1)"></circle><circle r="5" cx="1141.58" cy="807.17" fill="rgba(53, 135, 215, 1)"></circle><circle r="5" cx="1240.48" cy="-76.4" fill="rgba(53, 135, 215, 1)"></circle><circle r="5" cx="1290" cy="214.23" fill="rgba(53, 135, 215, 1)"></circle><circle r="5" cx="1294.84" cy="382.93" fill="rgba(53, 135, 215, 1)"></circle><circle r="5" cx="1280.56" cy="531.79" fill="rgba(53, 135, 215, 1)"></circle><circle r="5" cx="1283.24" cy="644.32" fill="rgba(53, 135, 215, 1)"></circle><circle r="5" cx="1283.61" cy="853.67" fill="rgba(53, 135, 215, 1)"></circle><circle r="5" cx="1406.21" cy="-104.95" fill="rgba(53, 135, 215, 1)"></circle><circle r="5" cx="1396.14" cy="231.66" fill="rgba(53, 135, 215, 1)"></circle><circle r="5" cx="1413.19" cy="408.14" fill="rgba(53, 135, 215, 1)"></circle><circle r="5" cx="1389.1" cy="558.03" fill="rgba(53, 135, 215, 1)"></circle><circle r="5" cx="1445.94" cy="669.91" fill="rgba(53, 135, 215, 1)"></circle><circle r="5" cx="1422.05" cy="858.4" fill="rgba(53, 135, 215, 1)"></circle><circle r="5" cx="1561.89" cy="-75.34" fill="rgba(53, 135, 215, 1)"></circle><circle r="5" cx="1538.99" cy="99.85" fill="rgba(53, 135, 215, 1)"></circle><circle r="5" cx="1544.88" cy="189.71" fill="rgba(53, 135, 215, 1)"></circle><circle r="5" cx="1538.16" cy="398.14" fill="rgba(53, 135, 215, 1)"></circle><circle r="5" cx="1574.6" cy="516.19" fill="rgba(53, 135, 215, 1)"></circle><circle r="5" cx="1554.82" cy="682.72" fill="rgba(53, 135, 215, 1)"></circle><circle r="5" cx="1540.26" cy="821.51" fill="rgba(53, 135, 215, 1)"></circle><path d="M-108.11 834.25L-108.11 834.25" stroke="hsl(192.79999999999995, 94%, 79.3%)" stroke-width="1.5"></path><path d="M-108.11 834.25L-43.98 702.04" stroke="hsl(192.79999999999995, 94%, 79.3%)" stroke-width="1.5"></path><path d="M-108.11 834.25L104.52 815.71" stroke="hsl(192.79999999999995, 94%, 79.3%)" stroke-width="1.5"></path><path d="M-108.11 834.25L67.8 676.74" stroke="hsl(192.79999999999995, 94%, 79.3%)" stroke-width="1.5"></path><path d="M-108.11 834.25L218.93 788.55" stroke="hsl(192.79999999999995, 94%, 79.3%)" stroke-width="1.5"></path><path d="M1277.07 814.72L1277.07 814.72" stroke="hsl(192.79999999999995, 94%, 79.3%)" stroke-width="1.5"></path><path d="M1277.07 814.72L1263.53 668.25" stroke="hsl(192.79999999999995, 94%, 79.3%)" stroke-width="1.5"></path><path d="M1277.07 814.72L1397.49 702.84" stroke="hsl(192.79999999999995, 94%, 79.3%)" stroke-width="1.5"></path><path d="M1277.07 814.72L1145.1 708.2" stroke="hsl(192.79999999999995, 94%, 79.3%)" stroke-width="1.5"></path><path d="M1277.07 814.72L1107.31 838.69" stroke="hsl(192.79999999999995, 94%, 79.3%)" stroke-width="1.5"></path><path d="M1277.07 814.72L1452.36 842.81" stroke="hsl(192.79999999999995, 94%, 79.3%)" stroke-width="1.5"></path><path d="M1405.89 38.91L1405.89 38.91" stroke="hsl(192.79999999999995, 94%, 79.3%)" stroke-width="1.5"></path><path d="M1405.89 38.91L1305.07 105.71" stroke="hsl(192.79999999999995, 94%, 79.3%)" stroke-width="1.5"></path><path d="M1405.89 38.91L1297.07 -71.89" stroke="hsl(192.79999999999995, 94%, 79.3%)" stroke-width="1.5"></path><path d="M1405.89 38.91L1439.47 226.3" stroke="hsl(192.79999999999995, 94%, 79.3%)" stroke-width="1.5"></path><path d="M1446.87 388.11L1446.87 388.11" stroke="hsl(192.79999999999995, 94%, 79.3%)" stroke-width="1.5"></path><path d="M1446.87 388.11L1564.61 409.74" stroke="hsl(192.79999999999995, 94%, 79.3%)" stroke-width="1.5"></path><path d="M1446.87 388.11L1312.49 348.48" stroke="hsl(192.79999999999995, 94%, 79.3%)" stroke-width="1.5"></path><path d="M1446.87 388.11L1439.47 226.3" stroke="hsl(192.79999999999995, 94%, 79.3%)" stroke-width="1.5"></path><path d="M1576.76 669.01L1576.76 669.01" stroke="hsl(192.79999999999995, 94%, 79.3%)" stroke-width="1.5"></path><path d="M1576.76 669.01L1587.93 531.85" stroke="hsl(192.79999999999995, 94%, 79.3%)" stroke-width="1.5"></path><path d="M1576.76 669.01L1562.88 833.34" stroke="hsl(192.79999999999995, 94%, 79.3%)" stroke-width="1.5"></path><path d="M1562.88 833.34L1562.88 833.34" stroke="hsl(192.79999999999995, 94%, 79.3%)" stroke-width="1.5"></path><path d="M1562.88 833.34L1452.36 842.81" stroke="hsl(192.79999999999995, 94%, 79.3%)" stroke-width="1.5"></path><path d="M-43.98 702.04L-43.98 702.04" stroke="hsl(192.79999999999995, 94%, 79.3%)" stroke-width="1.5"></path><path d="M-43.98 702.04L67.8 676.74" stroke="hsl(192.79999999999995, 94%, 79.3%)" stroke-width="1.5"></path><path d="M67.8 676.74L67.8 676.74" stroke="hsl(192.79999999999995, 94%, 79.3%)" stroke-width="1.5"></path><path d="M104.52 815.71L104.52 815.71" stroke="hsl(192.79999999999995, 94%, 79.3%)" stroke-width="1.5"></path><path d="M104.52 815.71L218.93 788.55" stroke="hsl(192.79999999999995, 94%, 79.3%)" stroke-width="1.5"></path><path d="M248.92 637.69L248.92 637.69" stroke="hsl(192.79999999999995, 94%, 79.3%)" stroke-width="1.5"></path><path d="M248.92 637.69L340.84 668.26" stroke="hsl(192.79999999999995, 94%, 79.3%)" stroke-width="1.5"></path><path d="M248.92 637.69L218.93 788.55" stroke="hsl(192.79999999999995, 94%, 79.3%)" stroke-width="1.5"></path><path d="M248.92 637.69L67.8 676.74" stroke="hsl(192.79999999999995, 94%, 79.3%)" stroke-width="1.5"></path><path d="M218.93 788.55L218.93 788.55" stroke="hsl(192.79999999999995, 94%, 79.3%)" stroke-width="1.5"></path><path d="M218.93 788.55L382.56 831.71" stroke="hsl(192.79999999999995, 94%, 79.3%)" stroke-width="1.5"></path><path d="M218.93 788.55L340.84 668.26" stroke="hsl(192.79999999999995, 94%, 79.3%)" stroke-width="1.5"></path><path d="M218.93 788.55L67.8 676.74" stroke="hsl(192.79999999999995, 94%, 79.3%)" stroke-width="1.5"></path><path d="M340.84 668.26L340.84 668.26" stroke="hsl(192.79999999999995, 94%, 79.3%)" stroke-width="1.5"></path><path d="M340.84 668.26L382.56 831.71" stroke="hsl(192.79999999999995, 94%, 79.3%)" stroke-width="1.5"></path><path d="M382.56 831.71L382.56 831.71" stroke="hsl(192.79999999999995, 94%, 79.3%)" stroke-width="1.5"></path><path d="M382.56 831.71L553.62 819.66" stroke="hsl(192.79999999999995, 94%, 79.3%)" stroke-width="1.5"></path><path d="M558.02 554.26L558.02 554.26" stroke="hsl(192.79999999999995, 94%, 79.3%)" stroke-width="1.5"></path><path d="M558.02 554.26L509.73 645.34" stroke="hsl(192.79999999999995, 94%, 79.3%)" stroke-width="1.5"></path><path d="M558.02 554.26L674.44 501.49" stroke="hsl(192.79999999999995, 94%, 79.3%)" stroke-width="1.5"></path><path d="M558.02 554.26L340.84 668.26" stroke="hsl(192.79999999999995, 94%, 79.3%)" stroke-width="1.5"></path><path d="M558.02 554.26L553.62 819.66" stroke="hsl(192.79999999999995, 94%, 79.3%)" stroke-width="1.5"></path><path d="M509.73 645.34L509.73 645.34" stroke="hsl(192.79999999999995, 94%, 79.3%)" stroke-width="1.5"></path><path d="M509.73 645.34L340.84 668.26" stroke="hsl(192.79999999999995, 94%, 79.3%)" stroke-width="1.5"></path><path d="M509.73 645.34L553.62 819.66" stroke="hsl(192.79999999999995, 94%, 79.3%)" stroke-width="1.5"></path><path d="M509.73 645.34L674.44 501.49" stroke="hsl(192.79999999999995, 94%, 79.3%)" stroke-width="1.5"></path><path d="M509.73 645.34L382.56 831.71" stroke="hsl(192.79999999999995, 94%, 79.3%)" stroke-width="1.5"></path><path d="M553.62 819.66L553.62 819.66" stroke="hsl(192.79999999999995, 94%, 79.3%)" stroke-width="1.5"></path><path d="M553.62 819.66L690.33 853.53" stroke="hsl(192.79999999999995, 94%, 79.3%)" stroke-width="1.5"></path><path d="M553.62 819.66L340.84 668.26" stroke="hsl(192.79999999999995, 94%, 79.3%)" stroke-width="1.5"></path><path d="M674.44 501.49L674.44 501.49" stroke="hsl(192.79999999999995, 94%, 79.3%)" stroke-width="1.5"></path><path d="M674.44 501.49L860.7 496.08" stroke="hsl(192.79999999999995, 94%, 79.3%)" stroke-width="1.5"></path><path d="M674.44 501.49L812.57 682.66" stroke="hsl(192.79999999999995, 94%, 79.3%)" stroke-width="1.5"></path><path d="M690.33 853.53L690.33 853.53" stroke="hsl(192.79999999999995, 94%, 79.3%)" stroke-width="1.5"></path><path d="M690.33 853.53L854.82 836.83" stroke="hsl(192.79999999999995, 94%, 79.3%)" stroke-width="1.5"></path><path d="M690.33 853.53L812.57 682.66" stroke="hsl(192.79999999999995, 94%, 79.3%)" stroke-width="1.5"></path><path d="M690.33 853.53L509.73 645.34" stroke="hsl(192.79999999999995, 94%, 79.3%)" stroke-width="1.5"></path><path d="M860.7 496.08L860.7 496.08" stroke="hsl(192.79999999999995, 94%, 79.3%)" stroke-width="1.5"></path><path d="M860.7 496.08L1000.42 510.64" stroke="hsl(192.79999999999995, 94%, 79.3%)" stroke-width="1.5"></path><path d="M860.7 496.08L964.14 651.88" stroke="hsl(192.79999999999995, 94%, 79.3%)" stroke-width="1.5"></path><path d="M860.7 496.08L812.57 682.66" stroke="hsl(192.79999999999995, 94%, 79.3%)" stroke-width="1.5"></path><path d="M860.7 496.08L1114.83 402.08" stroke="hsl(192.79999999999995, 94%, 79.3%)" stroke-width="1.5"></path><path d="M812.57 682.66L812.57 682.66" stroke="hsl(192.79999999999995, 94%, 79.3%)" stroke-width="1.5"></path><path d="M812.57 682.66L964.14 651.88" stroke="hsl(192.79999999999995, 94%, 79.3%)" stroke-width="1.5"></path><path d="M812.57 682.66L854.82 836.83" stroke="hsl(192.79999999999995, 94%, 79.3%)" stroke-width="1.5"></path><path d="M854.82 836.83L854.82 836.83" stroke="hsl(192.79999999999995, 94%, 79.3%)" stroke-width="1.5"></path><path d="M854.82 836.83L964.14 651.88" stroke="hsl(192.79999999999995, 94%, 79.3%)" stroke-width="1.5"></path><path d="M854.82 836.83L1107.31 838.69" stroke="hsl(192.79999999999995, 94%, 79.3%)" stroke-width="1.5"></path><path d="M1000.42 510.64L1000.42 510.64" stroke="hsl(192.79999999999995, 94%, 79.3%)" stroke-width="1.5"></path><path d="M1000.42 510.64L1136.98 545.51" stroke="hsl(192.79999999999995, 94%, 79.3%)" stroke-width="1.5"></path><path d="M964.14 651.88L964.14 651.88" stroke="hsl(192.79999999999995, 94%, 79.3%)" stroke-width="1.5"></path><path d="M964.14 651.88L1000.42 510.64" stroke="hsl(192.79999999999995, 94%, 79.3%)" stroke-width="1.5"></path><path d="M964.14 651.88L1145.1 708.2" stroke="hsl(192.79999999999995, 94%, 79.3%)" stroke-width="1.5"></path><path d="M964.14 651.88L1136.98 545.51" stroke="hsl(192.79999999999995, 94%, 79.3%)" stroke-width="1.5"></path><path d="M1092.14 191.61L1092.14 191.61" stroke="hsl(192.79999999999995, 94%, 79.3%)" stroke-width="1.5"></path><path d="M1092.14 191.61L1261.87 243.81" stroke="hsl(192.79999999999995, 94%, 79.3%)" stroke-width="1.5"></path><path d="M1092.14 191.61L1114.83 402.08" stroke="hsl(192.79999999999995, 94%, 79.3%)" stroke-width="1.5"></path><path d="M1114.83 402.08L1114.83 402.08" stroke="hsl(192.79999999999995, 94%, 79.3%)" stroke-width="1.5"></path><path d="M1114.83 402.08L1136.98 545.51" stroke="hsl(192.79999999999995, 94%, 79.3%)" stroke-width="1.5"></path><path d="M1114.83 402.08L1000.42 510.64" stroke="hsl(192.79999999999995, 94%, 79.3%)" stroke-width="1.5"></path><path d="M1114.83 402.08L1312.49 348.48" stroke="hsl(192.79999999999995, 94%, 79.3%)" stroke-width="1.5"></path><path d="M1114.83 402.08L1261.87 243.81" stroke="hsl(192.79999999999995, 94%, 79.3%)" stroke-width="1.5"></path><path d="M1114.83 402.08L1286.47 559.42" stroke="hsl(192.79999999999995, 94%, 79.3%)" stroke-width="1.5"></path><path d="M1136.98 545.51L1136.98 545.51" stroke="hsl(192.79999999999995, 94%, 79.3%)" stroke-width="1.5"></path><path d="M1136.98 545.51L1286.47 559.42" stroke="hsl(192.79999999999995, 94%, 79.3%)" stroke-width="1.5"></path><path d="M1136.98 545.51L1145.1 708.2" stroke="hsl(192.79999999999995, 94%, 79.3%)" stroke-width="1.5"></path><path d="M1145.1 708.2L1145.1 708.2" stroke="hsl(192.79999999999995, 94%, 79.3%)" stroke-width="1.5"></path><path d="M1145.1 708.2L1263.53 668.25" stroke="hsl(192.79999999999995, 94%, 79.3%)" stroke-width="1.5"></path><path d="M1145.1 708.2L1107.31 838.69" stroke="hsl(192.79999999999995, 94%, 79.3%)" stroke-width="1.5"></path><path d="M1107.31 838.69L1107.31 838.69" stroke="hsl(192.79999999999995, 94%, 79.3%)" stroke-width="1.5"></path><path d="M1107.31 838.69L1263.53 668.25" stroke="hsl(192.79999999999995, 94%, 79.3%)" stroke-width="1.5"></path><path d="M1107.31 838.69L964.14 651.88" stroke="hsl(192.79999999999995, 94%, 79.3%)" stroke-width="1.5"></path><path d="M1297.07 -71.89L1297.07 -71.89" stroke="hsl(192.79999999999995, 94%, 79.3%)" stroke-width="1.5"></path><path d="M1297.07 -71.89L1305.07 105.71" stroke="hsl(192.79999999999995, 94%, 79.3%)" stroke-width="1.5"></path><path d="M1305.07 105.71L1305.07 105.71" stroke="hsl(192.79999999999995, 94%, 79.3%)" stroke-width="1.5"></path><path d="M1305.07 105.71L1261.87 243.81" stroke="hsl(192.79999999999995, 94%, 79.3%)" stroke-width="1.5"></path><path d="M1261.87 243.81L1261.87 243.81" stroke="hsl(192.79999999999995, 94%, 79.3%)" stroke-width="1.5"></path><path d="M1261.87 243.81L1312.49 348.48" stroke="hsl(192.79999999999995, 94%, 79.3%)" stroke-width="1.5"></path><path d="M1261.87 243.81L1439.47 226.3" stroke="hsl(192.79999999999995, 94%, 79.3%)" stroke-width="1.5"></path><path d="M1312.49 348.48L1312.49 348.48" stroke="hsl(192.79999999999995, 94%, 79.3%)" stroke-width="1.5"></path><path d="M1312.49 348.48L1439.47 226.3" stroke="hsl(192.79999999999995, 94%, 79.3%)" stroke-width="1.5"></path><path d="M1286.47 559.42L1286.47 559.42" stroke="hsl(192.79999999999995, 94%, 79.3%)" stroke-width="1.5"></path><path d="M1286.47 559.42L1390.01 547.72" stroke="hsl(192.79999999999995, 94%, 79.3%)" stroke-width="1.5"></path><path d="M1263.53 668.25L1263.53 668.25" stroke="hsl(192.79999999999995, 94%, 79.3%)" stroke-width="1.5"></path><path d="M1263.53 668.25L1286.47 559.42" stroke="hsl(192.79999999999995, 94%, 79.3%)" stroke-width="1.5"></path><path d="M1263.53 668.25L1397.49 702.84" stroke="hsl(192.79999999999995, 94%, 79.3%)" stroke-width="1.5"></path><path d="M1263.53 668.25L1390.01 547.72" stroke="hsl(192.79999999999995, 94%, 79.3%)" stroke-width="1.5"></path><path d="M1439.47 226.3L1439.47 226.3" stroke="hsl(192.79999999999995, 94%, 79.3%)" stroke-width="1.5"></path><path d="M1439.47 226.3L1580.57 197.8" stroke="hsl(192.79999999999995, 94%, 79.3%)" stroke-width="1.5"></path><path d="M1439.47 226.3L1305.07 105.71" stroke="hsl(192.79999999999995, 94%, 79.3%)" stroke-width="1.5"></path><path d="M1390.01 547.72L1390.01 547.72" stroke="hsl(192.79999999999995, 94%, 79.3%)" stroke-width="1.5"></path><path d="M1390.01 547.72L1397.49 702.84" stroke="hsl(192.79999999999995, 94%, 79.3%)" stroke-width="1.5"></path><path d="M1390.01 547.72L1446.87 388.11" stroke="hsl(192.79999999999995, 94%, 79.3%)" stroke-width="1.5"></path><path d="M1397.49 702.84L1397.49 702.84" stroke="hsl(192.79999999999995, 94%, 79.3%)" stroke-width="1.5"></path><path d="M1397.49 702.84L1452.36 842.81" stroke="hsl(192.79999999999995, 94%, 79.3%)" stroke-width="1.5"></path><path d="M1397.49 702.84L1286.47 559.42" stroke="hsl(192.79999999999995, 94%, 79.3%)" stroke-width="1.5"></path><path d="M1397.49 702.84L1576.76 669.01" stroke="hsl(192.79999999999995, 94%, 79.3%)" stroke-width="1.5"></path><path d="M1452.36 842.81L1452.36 842.81" stroke="hsl(192.79999999999995, 94%, 79.3%)" stroke-width="1.5"></path><path d="M1452.36 842.81L1576.76 669.01" stroke="hsl(192.79999999999995, 94%, 79.3%)" stroke-width="1.5"></path><path d="M1452.36 842.81L1263.53 668.25" stroke="hsl(192.79999999999995, 94%, 79.3%)" stroke-width="1.5"></path><path d="M1599.27 103.82L1599.27 103.82" stroke="hsl(192.79999999999995, 94%, 79.3%)" stroke-width="1.5"></path><path d="M1599.27 103.82L1580.57 197.8" stroke="hsl(192.79999999999995, 94%, 79.3%)" stroke-width="1.5"></path><path d="M1599.27 103.82L1439.47 226.3" stroke="hsl(192.79999999999995, 94%, 79.3%)" stroke-width="1.5"></path><path d="M1599.27 103.82L1405.89 38.91" stroke="hsl(192.79999999999995, 94%, 79.3%)" stroke-width="1.5"></path><path d="M1599.27 103.82L1305.07 105.71" stroke="hsl(192.79999999999995, 94%, 79.3%)" stroke-width="1.5"></path><path d="M1599.27 103.82L1564.61 409.74" stroke="hsl(192.79999999999995, 94%, 79.3%)" stroke-width="1.5"></path><path d="M1580.57 197.8L1580.57 197.8" stroke="hsl(192.79999999999995, 94%, 79.3%)" stroke-width="1.5"></path><path d="M1580.57 197.8L1564.61 409.74" stroke="hsl(192.79999999999995, 94%, 79.3%)" stroke-width="1.5"></path><path d="M1580.57 197.8L1446.87 388.11" stroke="hsl(192.79999999999995, 94%, 79.3%)" stroke-width="1.5"></path><path d="M1580.57 197.8L1405.89 38.91" stroke="hsl(192.79999999999995, 94%, 79.3%)" stroke-width="1.5"></path><path d="M1580.57 197.8L1305.07 105.71" stroke="hsl(192.79999999999995, 94%, 79.3%)" stroke-width="1.5"></path><path d="M1564.61 409.74L1564.61 409.74" stroke="hsl(192.79999999999995, 94%, 79.3%)" stroke-width="1.5"></path><path d="M1564.61 409.74L1587.93 531.85" stroke="hsl(192.79999999999995, 94%, 79.3%)" stroke-width="1.5"></path><path d="M1564.61 409.74L1439.47 226.3" stroke="hsl(192.79999999999995, 94%, 79.3%)" stroke-width="1.5"></path><path d="M1564.61 409.74L1390.01 547.72" stroke="hsl(192.79999999999995, 94%, 79.3%)" stroke-width="1.5"></path><path d="M1587.93 531.85L1587.93 531.85" stroke="hsl(192.79999999999995, 94%, 79.3%)" stroke-width="1.5"></path><path d="M1587.93 531.85L1390.01 547.72" stroke="hsl(192.79999999999995, 94%, 79.3%)" stroke-width="1.5"></path><path d="M1587.93 531.85L1446.87 388.11" stroke="hsl(192.79999999999995, 94%, 79.3%)" stroke-width="1.5"></path><path d="M1587.93 531.85L1397.49 702.84" stroke="hsl(192.79999999999995, 94%, 79.3%)" stroke-width="1.5"></path><circle r="25" cx="-108.11" cy="834.25" fill="url(#SvgjsRadialGradient1021)"></circle><circle r="25" cx="1277.07" cy="814.72" fill="url(#SvgjsRadialGradient1021)"></circle><circle r="25" cx="1405.89" cy="38.91" fill="url(#SvgjsRadialGradient1021)"></circle><circle r="25" cx="1446.87" cy="388.11" fill="url(#SvgjsRadialGradient1021)"></circle><circle r="25" cx="1576.76" cy="669.01" fill="url(#SvgjsRadialGradient1021)"></circle><circle r="25" cx="1562.88" cy="833.34" fill="url(#SvgjsRadialGradient1021)"></circle><circle r="5" cx="-43.98" cy="702.04" fill="#9fe8fc"></circle><circle r="5" cx="67.8" cy="676.74" fill="#9fe8fc"></circle><circle r="5" cx="104.52" cy="815.71" fill="#9fe8fc"></circle><circle r="5" cx="248.92" cy="637.69" fill="#9fe8fc"></circle><circle r="5" cx="218.93" cy="788.55" fill="#9fe8fc"></circle><circle r="5" cx="340.84" cy="668.26" fill="#9fe8fc"></circle><circle r="5" cx="382.56" cy="831.71" fill="#9fe8fc"></circle><circle r="5" cx="558.02" cy="554.26" fill="#9fe8fc"></circle><circle r="5" cx="509.73" cy="645.34" fill="#9fe8fc"></circle><circle r="5" cx="553.62" cy="819.66" fill="#9fe8fc"></circle><circle r="5" cx="674.44" cy="501.49" fill="#9fe8fc"></circle><circle r="5" cx="690.33" cy="853.53" fill="#9fe8fc"></circle><circle r="5" cx="860.7" cy="496.08" fill="#9fe8fc"></circle><circle r="5" cx="812.57" cy="682.66" fill="#9fe8fc"></circle><circle r="5" cx="854.82" cy="836.83" fill="#9fe8fc"></circle><circle r="5" cx="1000.42" cy="510.64" fill="#9fe8fc"></circle><circle r="5" cx="964.14" cy="651.88" fill="#9fe8fc"></circle><circle r="5" cx="1092.14" cy="191.61" fill="#9fe8fc"></circle><circle r="5" cx="1114.83" cy="402.08" fill="#9fe8fc"></circle><circle r="5" cx="1136.98" cy="545.51" fill="#9fe8fc"></circle><circle r="5" cx="1145.1" cy="708.2" fill="#9fe8fc"></circle><circle r="5" cx="1107.31" cy="838.69" fill="#9fe8fc"></circle><circle r="5" cx="1297.07" cy="-71.89" fill="#9fe8fc"></circle><circle r="5" cx="1305.07" cy="105.71" fill="#9fe8fc"></circle><circle r="5" cx="1261.87" cy="243.81" fill="#9fe8fc"></circle><circle r="5" cx="1312.49" cy="348.48" fill="#9fe8fc"></circle><circle r="5" cx="1286.47" cy="559.42" fill="#9fe8fc"></circle><circle r="5" cx="1263.53" cy="668.25" fill="#9fe8fc"></circle><circle r="5" cx="1439.47" cy="226.3" fill="#9fe8fc"></circle><circle r="5" cx="1390.01" cy="547.72" fill="#9fe8fc"></circle><circle r="5" cx="1397.49" cy="702.84" fill="#9fe8fc"></circle><circle r="5" cx="1452.36" cy="842.81" fill="#9fe8fc"></circle><circle r="5" cx="1599.27" cy="103.82" fill="#9fe8fc"></circle><circle r="5" cx="1580.57" cy="197.8" fill="#9fe8fc"></circle><circle r="5" cx="1564.61" cy="409.74" fill="#9fe8fc"></circle><circle r="5" cx="1587.93" cy="531.85" fill="#9fe8fc"></circle></g><defs><mask id="SvgjsMask1020"><rect width="1440" height="750" fill="#ffffff"></rect></mask><radialGradient id="SvgjsRadialGradient1021"><stop stop-color="#ffffff" offset="0.1"></stop><stop stop-color="rgba(62, 209, 249, 1)" offset="0.2"></stop><stop stop-color="rgba(62, 209, 249, 0)" offset="1"></stop></radialGradient></defs></svg>